<?xml version="1.0" standalone="no"?>
<!DOCTYPE svg PUBLIC "-//W3C//DTD SVG 20010904//EN"
 "http://www.w3.org/TR/2001/REC-SVG-20010904/DTD/svg10.dtd">
<svg version="1.0" xmlns="http://www.w3.org/2000/svg"
 width="300.000000pt" height="300.000000pt" viewBox="0 0 300.000000 300.000000"
 preserveAspectRatio="xMidYMid meet">
<metadata>
Created by potrace 1.14, written by Peter Selinger 2001-2017
</metadata>
<g transform="translate(0.000000,300.000000) scale(0.100000,-0.100000)"
fill="#000000" stroke="none">
<path d="M2105 2853 c-49 -10 -73 -28 -114 -86 -24 -33 -46 -69 -49 -79 -2
-10 -8 -18 -11 -18 -8 0 -8 -3 -13 -50 -2 -14 -11 -33 -22 -42 -17 -16 -21
-16 -49 -2 -16 9 -39 17 -51 19 -12 1 -52 10 -89 19 -38 9 -73 14 -78 10 -5
-3 -9 -1 -9 3 0 10 -275 10 -305 0 -11 -3 -36 -9 -55 -12 -49 -8 -128 -34
-171 -56 -45 -22 -53 -17 -99 65 -36 64 -106 138 -155 163 -34 18 -105 25
-121 12 -7 -6 -16 -8 -20 -7 -17 5 -108 -81 -129 -122 -7 -14 -24 -34 -37 -46
-26 -23 -111 -122 -116 -135 -2 -5 -9 -9 -16 -9 -7 0 -18 -6 -24 -12 -7 -7
-16 -13 -20 -13 -4 -1 -25 -10 -47 -22 -60 -31 -162 -64 -202 -66 -7 0 -13 -4
-13 -8 0 -3 -9 -9 -19 -12 -16 -4 -19 -12 -16 -43 3 -32 14 -48 65 -96 35 -32
69 -58 76 -58 8 0 14 -4 14 -9 0 -10 42 -28 85 -36 27 -6 43 -8 104 -13 22 -2
25 -38 5 -46 -9 -4 -25 -53 -28 -90 -1 -5 -10 -14 -21 -20 -11 -6 -22 -12 -24
-13 -2 -1 -5 -14 -7 -29 -2 -19 3 -28 16 -31 10 -3 17 -12 15 -21 -1 -10 2
-25 7 -34 5 -12 5 -18 -1 -18 -7 0 -7 -9 -1 -26 6 -15 12 -41 14 -58 8 -57 19
-90 47 -145 16 -29 26 -58 23 -63 -3 -5 -8 -24 -11 -41 -3 -18 -8 -39 -13 -47
-9 -18 -7 -174 4 -215 9 -39 45 -115 64 -137 8 -10 12 -18 8 -18 -4 0 2 -10
14 -22 11 -12 20 -28 20 -35 0 -7 5 -13 10 -13 6 0 10 -4 10 -10 0 -23 148
-150 174 -150 9 0 16 -4 16 -10 0 -5 6 -10 14 -10 7 0 30 -11 50 -25 20 -13
36 -22 36 -19 0 2 10 -1 22 -8 13 -7 25 -13 28 -13 3 -1 18 -7 33 -13 15 -7
40 -15 55 -18 15 -4 33 -11 39 -17 7 -5 13 -7 13 -3 0 4 10 0 22 -8 13 -8 39
-18 58 -21 37 -7 38 -8 85 -18 49 -12 294 -24 325 -17 3 1 41 2 85 4 44 1 89
5 100 9 11 4 36 9 55 11 19 3 49 8 65 12 17 3 42 7 58 7 15 0 27 3 27 7 0 4
19 13 43 21 23 7 57 22 75 32 17 10 32 16 32 12 0 -4 6 -3 13 3 6 5 62 36 122
67 127 67 146 80 237 168 85 82 150 198 163 292 2 11 7 31 12 45 11 29 11 29
-11 385 -2 33 -5 60 -6 60 -2 0 -4 11 -5 25 -2 19 15 41 74 100 110 107 181
188 181 205 0 8 3 15 8 15 4 0 20 26 37 58 16 31 32 59 35 62 9 7 22 39 35 87
l11 41 -47 44 c-59 54 -104 88 -117 88 -6 0 -12 3 -14 8 -4 10 -56 45 -103 69
-69 35 -136 67 -148 69 -74 15 -88 24 -150 91 -76 82 -92 95 -150 118 -59 25
-103 34 -132 28z"/>
</g>
</svg>
